<?xml version="1.0" standalone="no"?>
<!DOCTYPE svg PUBLIC "-//W3C//DTD SVG 20010904//EN"
 "http://www.w3.org/TR/2001/REC-SVG-20010904/DTD/svg10.dtd">
<svg version="1.0" xmlns="http://www.w3.org/2000/svg"
 width="1280.000000pt" height="1252.000000pt" viewBox="0 0 1280.000000 1252.000000"
 preserveAspectRatio="xMidYMid meet">
<metadata>
Created by potrace 1.15, written by Peter Selinger 2001-2017
</metadata>
<g transform="translate(0.000000,1252.000000) scale(0.100000,-0.100000)"
fill="#ff0000" stroke="none">
<path d="M7135 12514 c-308 -23 -544 -59 -786 -119 -816 -201 -1531 -613
-2159 -1244 -96 -97 -204 -211 -240 -254 l-65 -79 -155 5 c-304 11 -530 95
-800 300 -98 74 -333 304 -430 420 -30 36 -58 66 -61 66 -10 1 -97 -267 -128
-395 -33 -137 -65 -329 -81 -483 -13 -130 -13 -496 0 -621 51 -491 215 -915
478 -1241 86 -107 252 -263 361 -339 51 -36 100 -70 108 -76 14 -10 14 -22 -5
-115 -54 -267 -71 -596 -43 -839 62 -539 300 -1111 685 -1645 50 -69 111 -162
136 -207 151 -274 354 -539 625 -817 374 -382 833 -733 1511 -1156 121 -75
234 -151 252 -168 64 -60 92 -144 73 -214 -14 -51 -76 -109 -127 -119 -63 -12
-184 3 -264 31 -96 34 -329 152 -595 300 -394 219 -661 338 -905 403 -132 35
-139 36 -325 36 -182 0 -194 -1 -275 -28 -155 -51 -272 -127 -392 -254 -82
-87 -139 -171 -253 -372 -48 -85 -94 -161 -101 -169 -10 -11 -31 -5 -126 36
-458 199 -741 469 -819 783 -18 71 -21 104 -16 215 6 161 32 259 116 430 71
145 110 205 257 400 142 189 209 296 289 460 73 149 124 294 156 445 33 152
33 430 0 580 -64 298 -208 580 -438 858 -108 130 -358 373 -510 496 -74 59
-120 103 -116 109 4 7 36 52 71 102 35 49 93 139 129 198 56 94 65 115 65 156
0 100 -45 127 -287 171 -506 92 -1022 251 -1582 487 -165 69 -215 74 -283 29
-66 -43 -96 -132 -70 -202 6 -15 62 -107 124 -203 322 -501 539 -935 703
-1405 60 -174 96 -226 163 -241 62 -14 156 52 405 281 l136 126 37 -28 c139
-104 329 -287 434 -419 198 -248 307 -532 308 -804 1 -344 -160 -713 -499
-1151 -224 -289 -335 -511 -393 -788 -32 -151 -32 -421 0 -568 101 -469 398
-874 862 -1177 108 -70 270 -155 385 -202 50 -21 91 -38 93 -40 1 -1 -25 -65
-57 -142 -65 -154 -184 -478 -225 -614 -48 -161 -59 -228 -60 -369 0 -122 3
-143 28 -215 70 -204 198 -324 508 -476 449 -219 952 -357 1513 -415 213 -22
767 -25 985 -6 918 84 1814 339 2663 759 l208 103 154 -45 c919 -266 1827
-414 2540 -415 596 0 1037 93 1325 281 176 115 349 356 421 589 20 64 24 95
23 205 -1 156 -25 248 -106 414 -104 212 -543 841 -778 1116 -134 156 -456
476 -590 586 -543 446 -1047 503 -1655 187 -393 -205 -727 -362 -1043 -490
-93 -38 -140 -52 -177 -52 -91 -1 -155 61 -155 149 0 76 19 96 236 245 263
181 336 233 524 374 727 548 1321 1150 1718 1742 33 50 87 122 120 160 314
366 542 833 651 1334 95 433 112 861 56 1375 l-6 50 96 63 c167 112 360 312
473 492 105 168 208 428 251 635 41 199 54 341 54 570 1 245 -11 380 -53 631
-40 232 -160 694 -181 694 -3 0 -49 -62 -102 -138 -355 -507 -664 -773 -1023
-877 -122 -35 -217 -52 -221 -38 -10 28 -171 260 -249 358 -116 145 -348 376
-504 500 -637 510 -1400 820 -2270 920 -128 15 -612 28 -725 19z m720 -219
c1156 -121 2180 -679 2732 -1487 35 -50 61 -93 60 -95 -2 -1 -69 15 -150 36
-89 24 -150 35 -153 29 -15 -24 -67 -223 -86 -328 -26 -148 -36 -455 -18 -613
25 -234 89 -487 176 -702 110 -268 303 -583 465 -757 l44 -48 180 125 c98 69
182 122 186 117 8 -8 34 -225 49 -397 13 -156 13 -440 -1 -585 -46 -512 -209
-949 -491 -1319 -42 -56 -49 -61 -44 -36 74 361 69 767 -13 1086 -170 659
-654 1069 -1381 1170 -111 16 -430 16 -550 0 -506 -65 -1026 -253 -1518 -550
-56 -34 -109 -64 -117 -67 -9 -4 -43 15 -82 44 -346 255 -726 425 -1133 506
-245 49 -363 60 -690 60 -319 1 -424 -6 -729 -50 -122 -17 -177 -22 -185 -14
-16 16 -20 203 -6 270 13 61 22 77 113 214 132 195 215 447 247 748 46 438
-63 952 -220 1033 -23 12 -39 13 -87 4 -76 -15 -247 -15 -298 -1 -22 7 -55 21
-73 32 -27 17 -31 23 -23 39 6 10 86 94 178 187 374 377 749 656 1188 885 532
276 1118 439 1727 479 172 11 525 4 703 -15z m4222 -1187 c-8 -311 -66 -561
-188 -817 -84 -177 -174 -307 -299 -432 -253 -254 -548 -381 -915 -396 l-151
-6 -33 117 c-108 383 -116 640 -30 920 l21 68 42 -6 c107 -18 188 -25 266 -26
317 -1 617 111 886 331 94 77 250 242 331 351 37 48 68 88 71 88 3 0 2 -87 -1
-192z m-9332 -90 c267 -222 568 -380 876 -458 190 -49 305 -62 583 -69 l268
-6 18 -48 c28 -73 57 -210 71 -327 12 -103 7 -566 -7 -652 l-6 -38 -97 0
c-111 0 -332 15 -441 30 -470 66 -823 225 -1085 488 -284 287 -431 668 -452
1172 l-6 155 84 -78 c46 -43 134 -119 194 -169z m-1961 -2283 c338 -137 657
-234 946 -290 192 -37 218 -45 240 -73 11 -13 20 -39 20 -57 0 -37 -70 -159
-167 -290 -44 -59 -63 -93 -57 -101 5 -6 65 -58 134 -115 257 -213 548 -525
697 -748 217 -326 316 -670 284 -991 -37 -364 -176 -680 -506 -1145 -179 -253
-253 -399 -307 -605 -18 -71 -22 -111 -22 -240 1 -138 4 -164 28 -243 115
-381 466 -677 1023 -862 8 -3 -23 -79 -86 -217 -91 -198 -100 -213 -123 -211
-34 2 -219 90 -327 155 -304 182 -558 443 -699 717 -102 197 -140 341 -149
556 -15 386 131 748 469 1162 136 165 207 272 273 408 96 199 135 364 135 580
0 341 -121 660 -384 1009 -107 143 -335 380 -494 513 l-112 96 -123 -120
c-139 -135 -266 -240 -303 -249 -32 -8 -79 12 -98 41 -8 13 -36 80 -61 150
-119 327 -255 598 -471 936 -80 125 -94 153 -94 188 0 70 48 120 116 121 18 0
116 -34 218 -75z m8551 -465 c387 -33 701 -167 935 -399 285 -284 420 -678
389 -1139 -71 -1044 -973 -2172 -2439 -3052 -301 -181 -440 -242 -650 -287
-129 -27 -419 -25 -558 5 -217 47 -370 108 -602 242 -1199 688 -2013 1473
-2345 2260 -217 512 -224 1030 -19 1444 353 714 1221 1038 2133 795 332 -88
696 -269 991 -493 l98 -74 82 54 c551 369 1160 604 1665 643 158 12 187 12
320 1z m1256 -4563 c290 -76 532 -227 809 -506 372 -374 704 -904 802 -1281
37 -143 43 -308 14 -405 -82 -274 -330 -433 -783 -502 -168 -25 -717 -25 -953
0 -551 60 -859 123 -1605 332 -335 93 -770 201 -965 240 -159 31 -422 73 -470
75 -53 2 297 118 514 170 440 106 835 145 1466 144 485 0 883 -24 1341 -80
l54 -6 -40 28 c-234 161 -430 412 -496 632 -6 23 -15 42 -18 42 -12 0 -149
-126 -203 -188 -31 -34 -73 -88 -93 -120 l-37 -57 -352 4 c-793 8 -1394 -72
-2276 -303 -528 -139 -840 -188 -1195 -188 -110 0 -240 5 -290 11 -395 51
-678 182 -907 419 -112 117 -184 220 -259 371 l-57 113 -6 -53 c-38 -302 -111
-485 -251 -625 -67 -68 -98 -90 -176 -127 -52 -25 -158 -64 -237 -87 -242 -69
-319 -114 -367 -216 -15 -31 -25 -57 -23 -59 2 -2 73 7 158 19 283 43 405 51
800 51 625 -1 905 -40 2125 -296 353 -74 794 -159 826 -159 28 0 23 -12 -14
-34 -84 -49 -314 -158 -417 -199 -933 -366 -2135 -434 -3230 -182 -374 86
-811 230 -935 310 -58 37 -106 89 -137 148 -33 64 -37 189 -9 297 61 236 372
975 558 1330 156 296 229 406 351 522 245 234 521 248 982 51 254 -109 668
-253 995 -348 1011 -290 1727 -272 2220 57 43 29 120 92 170 140 l91 86 28
-53 c42 -80 90 -130 158 -164 53 -27 72 -31 143 -31 45 0 105 7 136 16 135 40
635 260 1104 487 382 185 468 209 715 203 113 -3 166 -9 241 -29z"/>
<path d="M7345 12153 c-959 -27 -1784 -310 -2237 -766 -155 -156 -246 -318
-256 -454 -4 -60 -1 -79 18 -118 28 -59 83 -96 150 -103 95 -9 133 19 425 314
143 144 306 298 363 343 556 437 1264 677 2190 740 74 5 137 12 140 15 3 3 -8
6 -24 6 -17 0 -88 4 -160 9 -150 11 -465 19 -609 14z"/>
<path d="M718 8634 c-34 -18 -48 -43 -48 -83 0 -70 324 -381 555 -534 106 -70
239 -137 272 -137 88 0 147 124 92 194 -12 15 -78 55 -151 92 -241 121 -383
218 -538 369 -88 86 -126 116 -147 115 -4 -1 -20 -7 -35 -16z"/>
<path d="M9530 7764 c-178 -38 -347 -132 -610 -340 -174 -138 -288 -213 -425
-281 -95 -47 -264 -107 -359 -128 -16 -3 -44 -21 -63 -40 -28 -28 -33 -40 -33
-82 0 -92 67 -152 154 -139 51 9 243 85 360 143 210 105 367 220 576 420 154
147 237 209 342 257 199 92 354 74 594 -70 50 -30 98 -54 107 -54 24 0 51 45
40 65 -17 30 -168 135 -268 185 -151 76 -272 95 -415 64z"/>
<path d="M4792 7750 c-90 -14 -133 -80 -98 -149 28 -52 47 -58 211 -64 166 -6
255 -25 420 -92 201 -81 494 -261 800 -493 88 -67 224 -170 302 -229 201 -153
242 -176 318 -181 59 -4 62 -3 89 29 24 29 28 39 24 81 -7 65 -31 89 -143 142
-104 49 -191 106 -500 326 -477 341 -729 487 -987 573 -152 51 -329 74 -436
57z"/>
<path d="M10135 6998 c-41 -63 -141 -163 -197 -199 -105 -68 -235 -86 -364
-49 -38 10 -109 30 -158 44 -355 100 -658 -25 -955 -394 -42 -52 -129 -173
-194 -268 -65 -94 -123 -172 -128 -172 -17 0 -90 -74 -108 -109 -38 -76 -38
-78 26 -96 32 -10 96 -18 143 -19 79 -2 89 -5 140 -38 108 -70 260 -122 427
-147 203 -31 472 7 657 93 71 32 71 32 148 20 73 -11 148 -44 148 -65 0 -21
19 -7 29 22 14 41 14 115 -1 178 -11 50 -11 52 17 81 16 17 36 30 44 30 24 0
156 -75 222 -126 32 -25 59 -41 59 -36 0 52 -88 254 -134 309 -31 37 -32 43
-6 92 16 31 23 38 43 34 35 -7 135 14 181 38 23 11 63 42 89 67 49 47 112 130
105 137 -2 2 -48 -12 -103 -31 -80 -28 -111 -34 -158 -31 -31 2 -61 8 -66 13
-6 5 -5 41 2 90 12 78 14 83 66 140 95 103 117 188 86 335 -10 46 -21 88 -25
92 -4 4 -20 -11 -35 -35z m-638 -390 c100 -33 238 -109 288 -158 l29 -30 -15
-92 c-28 -162 -90 -286 -201 -399 -158 -162 -367 -252 -614 -266 -184 -10
-351 25 -519 110 -93 46 -195 113 -195 128 0 25 134 269 148 269 4 0 27 -27
52 -61 71 -98 171 -172 282 -210 52 -17 81 -20 164 -17 92 3 107 6 176 40 80
40 145 101 191 178 78 134 73 331 -12 498 -11 22 -21 44 -21 48 0 16 158 -8
247 -38z m-542 -109 c92 -25 151 -108 143 -200 -14 -142 -172 -219 -295 -143
-60 38 -88 90 -88 165 1 89 51 151 145 180 36 11 50 10 95 -2z"/>
<path d="M5572 6744 c-27 -19 -30 -74 -4 -96 9 -9 55 -25 102 -37 201 -51 393
-127 514 -205 32 -20 89 -66 126 -101 79 -75 109 -82 159 -39 62 52 37 111
-88 206 -128 97 -326 179 -600 249 -176 44 -179 45 -209 23z"/>
<path d="M4381 6673 c57 -82 182 -226 278 -321 86 -84 95 -97 92 -125 -5 -48
-25 -91 -65 -135 -20 -22 -36 -42 -36 -45 0 -3 32 -11 70 -17 74 -12 134 -8
236 17 l60 14 87 -52 87 -52 0 -42 c0 -57 -23 -129 -54 -169 -32 -42 -25 -46
82 -46 92 0 176 19 277 61 l76 32 92 -27 c50 -16 100 -30 111 -33 16 -4 12
-11 -24 -48 -22 -23 -68 -62 -100 -86 -63 -47 -74 -62 -37 -55 12 3 51 8 86
11 82 8 228 46 327 85 l77 31 124 -10 c151 -13 393 -14 412 -2 13 8 12 16 -5
53 -47 104 -157 246 -257 332 l-52 44 -140 16 c-704 83 -1218 244 -1703 535
l-132 79 31 -45z"/>
<path d="M4716 5504 c-41 -40 -9 -76 99 -110 169 -54 438 -70 665 -40 87 12
107 18 123 37 21 26 16 62 -11 93 -19 20 -35 20 -237 -8 -181 -26 -369 -15
-510 28 -64 20 -109 20 -129 0z"/>
<path d="M7280 5506 c-119 -26 -229 -106 -275 -201 -30 -60 -28 -100 6 -131
32 -29 80 -23 140 19 78 53 131 70 224 71 94 1 151 -17 237 -75 69 -46 108
-50 143 -14 28 28 34 93 11 133 -24 44 -107 120 -165 151 -104 55 -211 71
-321 47z"/>
<path d="M7425 4735 c-78 -24 -82 -24 -159 -8 -91 18 -186 14 -286 -12 -75
-19 -200 -78 -226 -106 -24 -26 -51 -24 -211 16 -76 19 -154 35 -174 35 -68 0
-118 -70 -106 -148 8 -44 39 -77 95 -102 24 -11 76 -40 115 -64 40 -25 84 -48
99 -51 22 -6 30 -17 44 -58 65 -201 212 -374 389 -458 118 -57 191 -73 325
-73 214 0 390 70 548 219 105 99 184 222 227 353 14 42 22 53 49 62 17 5 79
36 136 68 58 32 127 67 153 77 70 27 107 67 107 116 0 52 -23 95 -63 119 -43
26 -60 25 -195 -11 -64 -17 -163 -42 -221 -55 l-106 -24 -65 38 c-126 74 -187
92 -305 91 -65 0 -112 -7 -170 -24z m-139 -460 c34 -8 80 -22 103 -31 42 -17
42 -17 36 -58 -18 -110 -99 -219 -182 -247 -47 -15 -149 -7 -198 16 -84 41
-161 149 -172 244 l-5 47 103 18 c57 10 109 20 114 21 28 9 147 3 201 -10z"/>
</g>
</svg>
